<svg width="70" height="70" viewBox="0 0 70 70" fill="none" xmlns="http://www.w3.org/2000/svg">
<ellipse cx="34.8312" cy="35" rx="34.8312" ry="35" fill="#5CBA99"/>
<path d="M44.9006 43H46.5966V38.504C46.5966 37.8213 46.6952 37.2773 46.8926 36.872C47.0952 36.4613 47.3619 36.1653 47.6926 35.984C48.0232 35.8027 48.3886 35.712 48.7886 35.712C49.2472 35.712 49.6206 35.8053 49.9086 35.992C50.1966 36.1787 50.4179 36.424 50.5726 36.728C50.7272 37.032 50.8312 37.3627 50.8846 37.72C50.9432 38.072 50.9726 38.416 50.9726 38.752V43H52.6686V38.2C52.6686 37.9333 52.6446 37.624 52.5966 37.272C52.5486 36.92 52.4579 36.56 52.3246 36.192C52.1912 35.824 51.9966 35.4853 51.7406 35.176C51.4899 34.8613 51.1619 34.608 50.7566 34.416C50.3512 34.224 49.8499 34.128 49.2526 34.128C48.6286 34.128 48.0739 34.24 47.5886 34.464C47.1086 34.688 46.7112 34.9973 46.3966 35.392V31.48H44.9006V43ZM54.7523 43H56.4403V38.64C56.4403 38.1333 56.5203 37.664 56.6803 37.232C56.8403 36.8 57.123 36.4533 57.5283 36.192C57.8163 36.0053 58.1337 35.896 58.4803 35.864C58.827 35.832 59.139 35.8533 59.4163 35.928V34.36C59.027 34.2853 58.6137 34.288 58.1763 34.368C57.7443 34.448 57.3657 34.608 57.0403 34.848C56.7203 35.0613 56.4537 35.3573 56.2403 35.736V34.36H54.7523V43Z" fill="white"/>
<path d="M14.1375 43.988H25.8255V41.6H18.0135L23.0175 37.136C23.6415 36.584 24.1615 36.072 24.5775 35.6C24.9935 35.128 25.3055 34.616 25.5135 34.064C25.7215 33.504 25.8255 32.832 25.8255 32.048C25.8255 30.952 25.5735 29.976 25.0695 29.12C24.5735 28.264 23.8935 27.592 23.0295 27.104C22.1655 26.608 21.1895 26.36 20.1015 26.36C18.9575 26.36 17.9375 26.6 17.0415 27.08C16.1535 27.552 15.4575 28.212 14.9535 29.06C14.4495 29.9 14.1975 30.88 14.1975 32H16.7655C16.7575 31.416 16.8935 30.88 17.1735 30.392C17.4615 29.896 17.8535 29.5 18.3495 29.204C18.8455 28.9 19.4135 28.748 20.0535 28.748C20.9815 28.748 21.7455 29.06 22.3455 29.684C22.9455 30.308 23.2455 31.084 23.2455 32.012C23.2455 32.5 23.1335 32.988 22.9095 33.476C22.6935 33.956 22.2815 34.468 21.6735 35.012L14.1495 41.756L14.1375 43.988ZM34.8347 44H37.3787V40.988H39.0947V38.612H37.3787V33.932H34.8347V38.612H29.9027L35.5187 26.72H32.6507L27.0347 38.612V40.988H34.8347V44Z" fill="white"/>
</svg>
